<?xml version="1.0" encoding="UTF-8"?>
<!DOCTYPE svg PUBLIC "-//W3C//DTD SVG 1.1//EN" "http://www.w3.org/Graphics/SVG/1.1/DTD/svg11.dtd">
<!-- Creator: CorelDRAW 2018 (64 Bit Versión de evaluación) -->
<svg xmlns="http://www.w3.org/2000/svg" xml:space="preserve" width="300mm" height="300mm" version="1.1" style="shape-rendering:geometricPrecision; text-rendering:geometricPrecision; image-rendering:optimizeQuality; fill-rule:evenodd; clip-rule:evenodd"
viewBox="0 0 30000 30000"
 xmlns:xlink="http://www.w3.org/1999/xlink">
 <defs>
  <style type="text/css">
   <![CDATA[
    .str3 {stroke:#4B4B4D;stroke-width:75;stroke-miterlimit:22.9256}
    .str4 {stroke:#4B4B4D;stroke-width:20;stroke-miterlimit:22.9256}
    .str0 {stroke:#FFE19C;stroke-width:20;stroke-miterlimit:22.9256}
    .str2 {stroke:#91D8F7;stroke-width:20;stroke-miterlimit:22.9256}
    .str1 {stroke:#52658C;stroke-width:20;stroke-miterlimit:22.9256}
    .fil4 {fill:#4B4B4D}
    .fil0 {fill:#FFE19C}
    .fil2 {fill:#91D8F7}
    .fil1 {fill:#52658C}
    .fil3 {fill:#4B4B4D;fill-rule:nonzero}
   ]]>
  </style>
 </defs>
 <g id="Capa_x0020_1">
  <metadata id="CorelCorpID_0Corel-Layer"/>
  <g id="_1824684209024">
   <ellipse class="fil0 str0" cx="14741.27" cy="14688.3" rx="14427.51" ry="7988.31"/>
   <ellipse class="fil1 str1" transform="matrix(1.11588 1.11588 -1.11588 1.11588 14623.4 14688.3)" rx="9142.4" ry="5062.02"/>
   <ellipse class="fil2 str2" transform="matrix(1.11588 -1.11588 1.11588 1.11588 14623.4 14688.3)" rx="9142.4" ry="5062.02"/>
   <ellipse class="fil2 str2" transform="matrix(0.0799304 0.046964 -0.046964 0.0799304 14134.5 3417.09)" rx="9142.4" ry="5062.02"/>
   <ellipse class="fil1 str1" transform="matrix(-0.0538225 0.0969698 -0.0969698 -0.0538225 26967.8 22876.6)" rx="9142.4" ry="5062.02"/>
   <ellipse class="fil1 str1" transform="matrix(-0.0418304 -0.00544655 0.00544655 -0.0418304 26130.9 24253)" rx="9142.4" ry="5062.02"/>
   <ellipse class="fil0 str0" transform="matrix(0.0501634 0.0381163 -0.0381163 0.0501634 747.669 18075.3)" rx="9142.4" ry="5062.02"/>
   <ellipse class="fil0 str0" transform="matrix(0.0166103 0.0126212 -0.0126212 0.0166103 1431.34 18671.2)" rx="9142.4" ry="5062.02"/>
   <ellipse class="fil2 str2" transform="matrix(0.0563446 -0.0051993 0.0051993 0.0563446 8059.84 26858.9)" rx="9142.4" ry="5062.02"/>
   <ellipse class="fil2 str2" transform="matrix(0.0225049 -0.00207668 0.00207668 0.0225049 8962.39 27057.4)" rx="9142.4" ry="5062.02"/>
   <ellipse class="fil0 str0" transform="matrix(0.0254624 0.0411082 -0.0411082 0.0254624 29437.8 13493.3)" rx="9142.4" ry="5062.02"/>
   <g>
    <path class="fil3 str3" d="M19120.87 22806.4c0,-1197.98 0,-3367.82 0,-4565.8 0,-1197.96 0,-2397.59 0,-3595.55 0,-1197.94 0,-2397.56 0,-3595.54 0,-1199.59 0,-3317.3 0,-4518.56 1291.76,2.6 4622.1,17.58 5972.44,0 0,648.97 0,2064.53 0,2710.22 -773.27,8.98 -2921.42,8.43 -3630.15,17.41 0,698.14 0,1204.84 0,1902.98 0,696.51 0,1394.62 0,2091.13 690.8,-1.5 2114.46,12.13 2811.61,4.05 0,647.34 0,1274.74 0,1918.77 -709.02,12.15 -2141,14.18 -2811.61,14.25 0,1053.74 0,2107.49 0,3161.26 0,1053.74 0,3401.64 0,4455.38 -615.39,-3.7 -1786.5,-2.55 -2342.29,0z"/>
    <path class="fil3 str3" d="M11912.71 10091.53c577.07,5.45 1248.65,1.08 1811.25,6.38 0,712.9 22.33,2397.62 22.33,3107.23 0,711.23 0,466.8 0,1174.76 0,711.25 0,235.54 0,943.5 0,709.6 0,783.21 0,1492.81 0,1412.63 83.23,2070.39 251.56,2671.75 168.35,601.38 317.72,944.5 717.91,994.75 395.27,49.64 680.3,-291.64 844.26,-884.95 164.35,-594.82 247.3,-1602.76 247.3,-3023.61 0,-709.59 0,-1419.2 0,-2128.8 0,-707.96 0,-1419.19 0,-2128.82 0,-709.58 0,-1419.19 0,-2128.81 0,-711.22 0,-2939 0,-3651.88 295.77,1.75 1472.69,2.27 1762.52,0 0,765.32 0,2920.98 0,3684.68 0,762.02 0,1525.71 0,2289.41 0,763.69 0,1527.36 0,2291.05 0,763.68 0,1527.37 0,2291.04 0,927.58 -52.01,1748.49 -149.24,2459.85 -96.76,707.81 -245.78,1312.43 -441.31,1805.98 -664.28,1676.76 -2684.92,1884.66 -3706.87,860.36 -326.53,-327.3 -587.05,-742.02 -786.68,-1238.93 -203.31,-506.03 -348.56,-1065.06 -434.93,-1673.24 -86.3,-607.78 -130.03,-1429.03 -130.03,-2461.48 0,-762.03 0,-542.79 0,-1306.46 0,-762.07 0,-342.06 0,-1105.76 0,-762.02 0,-571.69 0,-1335.36 0,-762.06 -8.07,-2240.12 -8.07,-3005.45z"/>
    <path class="fil3 str3" d="M6232.93 22798.86c0,-1035.72 4.04,-3712.43 4.04,-4748.13 0,-1035.73 0,-2073.1 0,-3110.46 0,-1035.72 0,-2074.73 0,-3110.44 0,-1035.72 -5.89,-1534.38 -5.89,-2571.74 -557.42,-4.57 -1340.7,-3.49 -1881.77,0 0,-645.7 5.9,-2089.05 5.9,-2738.02 1715.86,6.53 7767.49,9.62 9423.09,0 0,648.97 -5.89,2074.05 -5.89,2719.73 -593.78,9.03 -3935.94,17.28 -4271.7,18.29 0,1037.36 5.89,2092.69 5.89,3130.05 0,1035.72 0,2073.09 0,3110.45 0,1035.72 0,2073.08 0,3110.45 0,1035.73 0,3156.37 0,4193.73 -585.15,-1.4 -2695.62,-2.76 -3273.67,-3.91z"/>
    <ellipse class="fil4 str4" transform="matrix(0.0100629 -0.0243489 0.0243489 0.0100629 9936.71 22243)" rx="9142.4" ry="5062.02"/>
    <ellipse class="fil4 str4" transform="matrix(-0.00424005 -0.00846695 0.00846695 -0.00424005 9721.21 22768.5)" rx="9142.4" ry="5062.02"/>
    <ellipse class="fil4 str4" transform="matrix(0.00309325 -0.00748461 0.00748461 0.00309325 15477.2 7413.87)" rx="9142.4" ry="5062.02"/>
    <ellipse class="fil4 str4" transform="matrix(0.0100629 -0.0243489 0.0243489 0.0100629 15365 7079.68)" rx="9142.4" ry="5062.02"/>
    <ellipse class="fil4 str4" transform="matrix(-0.0052394 -0.0258201 0.0258201 -0.0052394 21960.1 12263.6)" rx="9142.4" ry="5062.02"/>
    <ellipse class="fil4 str4" transform="matrix(-0.0026196 -0.0129096 0.0129096 -0.0026196 22088 11769.7)" rx="9142.4" ry="5062.02"/>
    <ellipse class="fil4 str4" transform="matrix(0.0123784 -0.0299515 0.0299515 0.0123784 5758.02 9894.57)" rx="9142.4" ry="5062.02"/>
   </g>
  </g>
 </g>
</svg>
